<?xml version="1.0" standalone="no"?><svg xmlns="http://www.w3.org/2000/svg" viewBox="0 0 1440 320"><path fill="#273036" fill-opacity="0.61" d="M0,96L16,96C32,96,64,96,96,80C128,64,160,32,192,64C224,96,256,192,288,218.7C320,245,352,203,384,176C416,149,448,139,480,154.7C512,171,544,213,576,202.7C608,192,640,128,672,128C704,128,736,192,768,218.7C800,245,832,235,864,208C896,181,928,139,960,133.3C992,128,1024,160,1056,170.7C1088,181,1120,171,1152,165.3C1184,160,1216,160,1248,181.3C1280,203,1312,245,1344,229.3C1376,213,1408,139,1424,101.3L1440,64L1440,320L1424,320C1408,320,1376,320,1344,320C1312,320,1280,320,1248,320C1216,320,1184,320,1152,320C1120,320,1088,320,1056,320C1024,320,992,320,960,320C928,320,896,320,864,320C832,320,800,320,768,320C736,320,704,320,672,320C640,320,608,320,576,320C544,320,512,320,480,320C448,320,416,320,384,320C352,320,320,320,288,320C256,320,224,320,192,320C160,320,128,320,96,320C64,320,32,320,16,320L0,320Z"></path></svg>
